<?xml version="1.0" encoding="UTF-8" standalone="no"?>
<svg width="47px" height="49px" viewBox="0 0 47 49" version="1.1" xmlns="http://www.w3.org/2000/svg" xmlns:xlink="http://www.w3.org/1999/xlink">
    <!-- Generator: Sketch 46.2 (44496) - http://www.bohemiancoding.com/sketch -->
    <title>Slice 1</title>
    <desc>Created with Sketch.</desc>
    <defs></defs>
    <g id="Page-1" stroke="none" stroke-width="1" fill="none" fill-rule="evenodd">
        <g id="AzureSQLDatabase" fill-rule="nonzero" fill="#ffffff">
            <path d="M15.5,25.5238095 C15.6,25.7619048 15.8,25.8809524 16,25.8809524 C16.2,26 16.4,26 16.6,26 C16.8,26 17,26 17.1,25.8809524 C17.3,25.7619048 17.4,25.6428571 17.6,25.4047619 C17.7,25.1666667 17.8,24.9285714 17.9,24.6904762 C18,24.452381 18,24.0952381 18,23.6190476 C18,23.2619048 18,23.0238095 17.9,22.6666667 C17.8,22.3095238 17.8,22.0714286 17.6,21.8333333 C17.5,21.5952381 17.3,21.4761905 17.2,21.2380952 C17,21.1190476 16.8,21 16.6,21 C16.3,21 16.1,21.1190476 15.9,21.2380952 C15.7,21.3571429 15.6,21.5952381 15.4,21.7142857 C15.3,21.952381 15.2,22.1904762 15.1,22.4285714 C15,22.6666667 15,23.0238095 15,23.3809524 C15,23.8571429 15,24.2142857 15.1,24.452381 C15.3,25.047619 15.4,25.2857143 15.5,25.5238095 Z" id="Shape"></path>
            <path d="M22.1145833,34.375 C22.4583333,34.375 22.9166667,34.375 23.2604167,34.4895833 C25.09375,30.8229167 28.7604167,28.4166667 33,28.1875 L33,6.76041667 C33,3.32291667 25.5520833,0 16.5,0 C7.33333333,0 0,3.09375 0,6.53125 L0,37.46875 C0,40.5625 6.07291667,43.5416667 13.9791667,44 C13.8645833,43.5416667 13.8645833,43.0833333 13.8645833,42.625 C13.8645833,38.15625 17.53125,34.375 22.1145833,34.375 Z M28.0729167,28.0729167 L22.34375,28.0729167 L22.34375,19.25 L24.9791667,19.25 L24.9791667,26.0104167 L28.0729167,26.0104167 L28.0729167,28.0729167 Z M16.5,2.40625 C23.03125,2.40625 28.3020833,4.01041667 28.3020833,5.95833333 C28.3020833,7.90625 23.03125,9.51041667 16.5,9.51041667 C9.96875,9.51041667 4.69791667,7.90625 4.69791667,5.95833333 C4.69791667,4.01041667 9.96875,2.40625 16.5,2.40625 Z M11.5729167,26.0104167 C11.5729167,26.2395833 11.4583333,26.46875 11.34375,26.6979167 C11.2291667,26.9270833 11.1145833,27.15625 10.8854167,27.2708333 C10.65625,27.5 10.4270833,27.6145833 10.1979167,27.7291667 C9.96875,27.84375 9.625,27.9583333 9.16666667,28.0729167 C8.82291667,28.1875 8.36458333,28.1875 7.79166667,28.1875 C7.5625,28.1875 7.21875,28.1875 6.98958333,28.1875 C6.76041667,28.1875 6.53125,28.1875 6.30208333,28.0729167 C6.07291667,28.0729167 5.84375,27.9583333 5.72916667,27.9583333 C5.5,27.9583333 5.38541667,27.84375 5.27083333,27.7291667 L5.27083333,25.3229167 C5.38541667,25.4375 5.61458333,25.5520833 5.84375,25.6666667 C6.07291667,25.78125 6.1875,25.8958333 6.41666667,26.0104167 C6.64583333,26.125 6.875,26.125 7.10416667,26.2395833 C7.33333333,26.3541667 7.5625,26.3541667 7.79166667,26.3541667 C8.02083333,26.3541667 8.13541667,26.3541667 8.25,26.2395833 C8.36458333,26.2395833 8.47916667,26.125 8.47916667,26.125 C8.59375,26.125 8.59375,26.0104167 8.59375,25.8958333 C8.59375,25.78125 8.59375,25.78125 8.59375,25.6666667 C8.59375,25.5520833 8.59375,25.4375 8.47916667,25.3229167 C8.36458333,25.2083333 8.36458333,25.09375 8.25,25.09375 C8.13541667,24.9791667 8.02083333,24.9791667 7.79166667,24.8645833 C7.5625,24.75 7.44791667,24.75 7.21875,24.6354167 C6.875,24.5208333 6.53125,24.2916667 6.1875,24.0625 C5.95833333,23.8333333 5.72916667,23.71875 5.5,23.4895833 C5.27083333,23.2604167 5.15625,23.03125 5.15625,22.8020833 C5.04166667,22.5729167 5.04166667,22.2291667 5.04166667,22 C5.04166667,21.5416667 5.15625,21.1979167 5.27083333,20.8541667 C5.5,20.5104167 5.72916667,20.1666667 5.95833333,19.9375 C6.30208333,19.7083333 6.64583333,19.4791667 7.10416667,19.3645833 C7.5625,19.25 8.02083333,19.1354167 8.59375,19.1354167 C8.9375,19.1354167 9.16666667,19.1354167 9.39583333,19.1354167 C9.625,19.1354167 9.85416667,19.1354167 10.0833333,19.25 C10.3125,19.25 10.4270833,19.3645833 10.65625,19.3645833 C10.7708333,19.3645833 11,19.4791667 11.1145833,19.4791667 L11.1145833,21.7708333 C11,21.65625 10.8854167,21.65625 10.65625,21.5416667 C10.5416667,21.4270833 10.3125,21.4270833 10.0833333,21.3125 C9.85416667,21.1979167 9.73958333,21.1979167 9.51041667,21.1979167 C9.28125,21.1979167 9.05208333,21.1979167 8.82291667,21.1979167 C8.47916667,21.1979167 8.25,21.1979167 8.13541667,21.3125 C7.90625,21.4270833 7.90625,21.5416667 7.90625,21.7708333 C7.90625,21.8854167 7.90625,22 8.02083333,22 C8.02083333,22.1145833 8.13541667,22.1145833 8.25,22.2291667 C8.36458333,22.34375 8.47916667,22.34375 8.59375,22.4583333 C8.70833333,22.5729167 8.9375,22.5729167 9.16666667,22.6875 C9.51041667,22.8020833 9.85416667,23.03125 10.1979167,23.1458333 C10.5416667,23.375 10.7708333,23.4895833 11,23.71875 C11.2291667,23.9479167 11.34375,24.1770833 11.5729167,24.40625 C11.6875,24.6354167 11.8020833,24.9791667 11.8020833,25.4375 C11.5729167,25.5520833 11.5729167,25.78125 11.5729167,26.0104167 Z M12.4895833,25.5520833 C12.2604167,24.9791667 12.1458333,24.40625 12.1458333,23.71875 C12.1458333,23.03125 12.2604167,22.34375 12.4895833,21.7708333 C12.71875,21.1979167 13.0625,20.7395833 13.40625,20.28125 C13.75,19.8229167 14.3229167,19.59375 14.78125,19.3645833 C15.3541667,19.1354167 15.9270833,19.0208333 16.6145833,19.0208333 C17.3020833,19.0208333 17.875,19.1354167 18.3333333,19.3645833 C18.90625,19.59375 19.3645833,19.9375 19.7083333,20.28125 C20.0520833,20.625 20.3958333,21.1979167 20.625,21.65625 C20.8541667,22.2291667 20.96875,22.8020833 20.96875,23.6041667 C20.96875,24.0625 20.96875,24.6354167 20.7395833,24.9791667 C20.625,25.4375 20.3958333,25.78125 20.1666667,26.125 C19.9375,26.46875 19.7083333,26.8125 19.3645833,27.0416667 C19.0208333,27.2708333 18.7916667,27.5 18.3333333,27.7291667 L21.3125,30.25 L17.875,30.25 L15.9270833,28.1875 C15.3541667,28.1875 14.78125,27.9583333 14.3229167,27.84375 C13.8645833,27.6145833 13.40625,27.2708333 13.0625,26.9270833 C13.0625,26.5833333 12.71875,26.125 12.4895833,25.5520833 Z" id="Shape"></path>
            <path d="M47,44.8888889 C47,42.7777778 45.3038869,41 43.155477,40.7777778 C43.2685512,40.1111111 43.3816254,39.5555556 43.3816254,38.8888889 C43.3816254,33.4444444 38.8586572,29 33.3180212,29 C29.1342756,29 25.4028269,31.4444444 23.9328622,35.2222222 C23.3674912,35.1111111 22.8021201,35 22.1236749,35 C18.1660777,35 15,38.1111111 15,42 C15,45.7777778 18.0530035,48.8888889 22.0106007,49 L43.2685512,49 L44.0600707,49 L44.0600707,48.8888889 C45.7561837,48.4444444 47,46.7777778 47,44.8888889 Z M43.155477,47.8888889 L22.1236749,47.8888889 C18.844523,47.8888889 16.130742,45.2222222 16.130742,42 C16.130742,38.7777778 18.844523,36.1111111 22.1236749,36.1111111 C22.8021201,36.1111111 23.4805654,36.2222222 24.0459364,36.4444444 L24.6113074,36.6666667 L24.8374558,36.1111111 C26.0812721,32.5555556 29.4734982,30.1111111 33.3180212,30.1111111 C38.2932862,30.1111111 42.2508834,34.1111111 42.2508834,38.8888889 C42.2508834,39.6666667 42.1378092,40.4444444 41.9116608,41.2222222 L41.6855124,42.1111111 L42.4770318,42 C42.590106,42 42.7031802,42 42.8162544,42 C44.5123675,42 45.869258,43.3333333 45.869258,45 C45.869258,46.4444444 44.7385159,47.7777778 43.155477,47.8888889 Z" id="Shape"></path>
        </g>
    </g>
</svg>