<?xml version="1.0" encoding="UTF-8" standalone="no"?>
<svg width="198px" height="198px" viewBox="0 0 198 198" version="1.1" xmlns="http://www.w3.org/2000/svg" xmlns:xlink="http://www.w3.org/1999/xlink">
    <!-- Generator: Sketch 46.2 (44496) - http://www.bohemiancoding.com/sketch -->
    <title>Slice 1</title>
    <desc>Created with Sketch.</desc>
    <defs></defs>
    <g id="Page-1" stroke="none" stroke-width="1" fill="none" fill-rule="evenodd">
        <g id="Azure-App-Service---Web-App-(was-Websites)" fill-rule="nonzero" fill="#ffffff">
            <g id="shape41-78_1_">
                <path d="M150.8,167.1 C135.2,179.1 116.9,184.8 98.7,184.8 C72.7,184.8 47.7,173.3 30.5,150.9 C1.9,113.4 9.1,59.8 46.6,31.1 C62.2,19.1 80.5,13.4 98.7,13.4 C124.7,13.4 149.7,24.9 166.9,47.3 C195.6,84.8 188.3,138.5 150.8,167.1 Z M176.9,39 C157.6,13.5 127.9,0.5 98.8,0.5 C78,0.5 56.6,7.3 38.9,20.8 C-4.3,54.1 -12.7,115.6 20.7,158.8 C40,184.3 69.1,197.3 98.8,197.3 C119.6,197.3 141,190.5 158.7,177 C201.9,144.2 210.2,82.2 176.9,39 Z" id="Shape"></path>
            </g>
            <g id="group42-80_1_" transform="translate(26.081750, 15.744750)">
                <g id="group43-81_1_" transform="translate(0.419250, 0.788500)">
                    <g id="shape44-82_1_" transform="translate(1.537000, 84.000000)">
                        <path d="M26.1,16.8 C20.4,11.1 15.7,5.9 12,0.7 C3.7,17.4 1.1,34.6 0,48.6 C1,49.6 1,50.7 1.6,51.7 C5.8,56.9 11,62.1 15.7,65.8 C15.7,54.3 16.7,35.5 26.1,16.8 Z" id="Shape"></path>
                    </g>
                    <g id="shape45-84_1_" transform="translate(22.041000, 34.266800)">
                        <path d="M35.9,0.4 C28.1,5.6 20.3,12.4 11.9,21.2 C7.7,25.9 3.6,30.6 0.4,35.3 C4,41 8.2,46.8 13.9,52.5 C18.1,46.8 23.3,40.5 29.5,34.8 C37.3,27.5 44.6,21.3 51.9,16.6 C46.8,11.4 41.1,5.6 35.9,0.4 Z" id="Shape"></path>
                    </g>
                    <g id="shape46-86_1_" transform="translate(69.193500, 15.833500)">
                        <path d="M70.4,13.8 C66.8,9.1 63.1,5 58.4,1.3 C45.4,-0.8 23.9,-0.4 0.5,12.1 C5.7,17.8 11.4,23.6 16.6,28.2 C47.8,11.1 70.4,13.8 70.4,13.8 Z" id="Shape"></path>
                    </g>
                    <g id="shape47-88_1_" transform="translate(0.000000, 21.786000)">
                        <path d="M13.9,62.2 C16.5,57.5 19.1,52.8 22.2,47.6 C8.7,26.2 9.2,8.5 10.7,0.2 C7.6,3.8 3.9,7.5 1.3,11.1 C-1.2,23.2 -1.2,40.9 13.9,62.2 Z" id="Shape"></path>
                    </g>
                    <g id="shape48-90_1_" transform="translate(27.973250, 87.114250)">
                        <path d="M24.4,14.8 C18.1,9.6 12.9,4.9 8.3,0.2 C5.2,4.9 2.6,9.1 -5.68434189e-14,13.7 C4.2,17.9 9.4,22.6 15.1,26.7 C50,54.3 84.9,56.9 104.7,56.9 C105.7,56.9 112,48.6 115.6,43.4 C106.6,45.5 69.1,50.2 24.4,14.8 Z" id="Shape"></path>
                    </g>
                    <g id="shape49-92_1_" transform="translate(13.581500, 68.595500)">
                        <path d="M0.2,15.5 C3.8,20.7 8.5,26.4 14.3,31.6 C16.4,26.9 19,22.7 22.6,18.1 C16.9,12.4 12.7,6.6 9.1,0.9 C5.5,6.1 2.8,10.8 0.2,15.5 Z" id="Shape"></path>
                    </g>
                    <g id="shape50-94_1_" transform="translate(73.912000, 43.635500)">
                        <path d="M0,7.3 C32.3,37 69.8,62 79.7,68.8 C80.7,66.2 81.3,64.1 81.8,61.5 C71.4,53.7 44.3,32.9 11.5,0 C8.3,2.1 4.1,3.5 0,7.3 Z" id="Shape"></path>
                    </g>
                    <g id="shape51-96_1_" transform="translate(34.122250, 0.307300)">
                        <path d="M36.1,27.4 C28.3,19.1 20,9.8 11.6,0.4 C8,1.4 3.8,3 0.1,5.1 C5.8,15 14.7,25.2 23.5,34.6 C28.3,32 32,29.5 36.1,27.4 Z" id="Shape"></path>
                    </g>
                    <g id="shape52-98_1_" transform="translate(57.105500, 27.080000)">
                        <path d="M13.1,0.6 C8.9,2.7 4.1,4.7 0.5,7.8 C5.7,13 11.1,18.6 16.8,23.8 C21,21.2 24.5,19.1 28.7,17 C23.5,11.9 18.8,6.4 13.1,0.6 Z" id="Shape"></path>
                    </g>
                </g>
                <g id="shape53-100_1_" transform="translate(105.241500, 68.542750)">
                    <path d="M7.1,4.1 C-0.7,10.4 -2.3,21.8 3.5,29.6 C9.8,37.9 21.2,39 29.5,33.2 C37.3,26.9 38.9,15.5 33.1,7.2 C26.9,-0.6 15.5,-2.1 7.1,4.1 Z" id="Shape"></path>
                </g>
                <g id="shape54-102_1_" transform="translate(66.846200, 115.000000)">
                    <path d="M7.5,3.8 C0.2,9.5 -1.4,20.5 4.4,27.8 C10.1,35.1 21.1,36.7 28.4,30.9 C35.7,25.2 37.3,14.8 31.5,6.9 C25.8,-0.9 15.3,-1.9 7.5,3.8 Z" id="Shape"></path>
                </g>
                <g id="shape55-104_1_" transform="translate(0.000000, 58.586750)">
                    <path d="M10.6,6 C-0.9,14.9 -2.9,31 5.9,42.5 C14.8,54 30.9,56 42.4,47.2 C53.9,38.4 55.9,22.2 47.1,10.7 C38.2,-0.8 21.5,-2.9 10.6,6 Z" id="Shape"></path>
                </g>
            </g>
        </g>
    </g>
</svg>