<?xml version="1.0" encoding="UTF-8" standalone="no"?>
<svg width="49px" height="43px" viewBox="0 0 49 43" version="1.1" xmlns="http://www.w3.org/2000/svg" xmlns:xlink="http://www.w3.org/1999/xlink">
    <!-- Generator: Sketch 46.2 (44496) - http://www.bohemiancoding.com/sketch -->
    <title>Slice 1</title>
    <desc>Created with Sketch.</desc>
    <defs></defs>
    <g id="Page-1" stroke="none" stroke-width="1" fill="none" fill-rule="evenodd">
        <g id="Azure-Storage---Blob" fill-rule="nonzero" fill="#ffffff">
            <path d="M36.7818182,0 L12.2181818,0 L0,21 L12.2181818,42 L36.7818182,42 L49,21 L36.7818182,0 Z M36.9090909,30.4311377 C36.9090909,32.1916168 35.3818182,33.7005988 33.6,33.7005988 L15.5272727,33.7005988 C13.7454545,33.7005988 12.2181818,32.1916168 12.2181818,30.4311377 L12.2181818,11.6946108 C12.2181818,9.93413174 13.7454545,8.4251497 15.5272727,8.4251497 L28.8909091,8.4251497 C30.1636364,8.4251497 31.4363636,8.4251497 31.4363636,8.4251497 L31.8181818,8.4251497 L36.9090909,13.4550898 L36.9090909,16.0958084 L36.9090909,30.4311377 Z" id="Shape"></path>
            <path d="M22.7777778,24.2 C22.7777778,23.9 22.6666667,23.75 22.6666667,23.6 C22.6666667,23.45 22.5555556,23.3 22.4444444,23.15 C22.3333333,23 22.3333333,23 22.2222222,23 C22.1111111,23 22,23 21.8888889,23 C21.6666667,23 21.5555556,23 21.4444444,23.15 C21.3333333,23.3 21.2222222,23.45 21.1111111,23.75 C21,24.05 21,24.35 21,24.65 C21,24.95 21,25.4 21,26 C21,26.6 21,27.05 21,27.5 C21,27.95 21.1111111,28.25 21.2222222,28.4 C21.3333333,28.7 21.4444444,28.85 21.5555556,28.85 C21.6666667,29 21.7777778,29 22,29 C22.1111111,29 22.2222222,29 22.3333333,28.85 C22.4444444,28.85 22.5555556,28.7 22.5555556,28.55 C22.6666667,28.4 22.6666667,28.25 22.7777778,28.1 C22.7777778,27.95 22.8888889,27.8 22.8888889,27.5 C22.8888889,27.35 22.8888889,27.05 23,26.75 C23,26.45 23,26.15 23,25.85 C23,25.4 23,25.1 23,24.8 C22.7777778,24.65 22.7777778,24.5 22.7777778,24.2 Z" id="Shape"></path>
            <path d="M28.7777778,14.2 C28.7777778,13.9 28.6666667,13.75 28.6666667,13.6 C28.6666667,13.45 28.5555556,13.3 28.4444444,13.15 C28.3333333,13 28.3333333,13 28.2222222,13 C28.1111111,13 28,13 27.8888889,13 C27.6666667,13 27.5555556,13 27.4444444,13.15 C27.3333333,13.3 27.2222222,13.45 27.1111111,13.75 C27,14.05 27,14.35 27,14.65 C27,14.95 27,15.4 27,16 C27,16.6 27,17.05 27,17.5 C27,17.95 27.1111111,18.25 27.2222222,18.4 C27.3333333,18.7 27.4444444,18.85 27.5555556,18.85 C27.6666667,19 27.7777778,19 28,19 C28.1111111,19 28.2222222,19 28.3333333,18.85 C28.4444444,18.85 28.5555556,18.7 28.5555556,18.55 C28.6666667,18.4 28.6666667,18.25 28.7777778,18.1 C28.7777778,17.95 28.8888889,17.8 28.8888889,17.5 C28.8888889,17.35 28.8888889,17.05 29,16.75 C29,16.45 29,16.15 29,15.85 C29,15.4 29,15.1 29,14.8 C28.8888889,14.8 28.8888889,14.5 28.7777778,14.2 Z" id="Shape"></path>
            <path d="M30.8253012,10 C30.3192771,10 29.560241,10 28.8012048,10 L15.5180723,10 C14.6325301,10 14,10.6358382 14,11.5260116 L14,30.4739884 C14,31.3641618 14.6325301,32 15.5180723,32 L33.4819277,32 C34.2409639,32 35,31.3641618 35,30.4739884 L35,14.1965318 L30.9518072,14.1965318 L30.9518072,10 L30.8253012,10 Z M19.5662651,13.8150289 C19.5662651,13.8150289 19.5662651,13.6878613 19.5662651,13.6878613 C19.5662651,13.6878613 19.5662651,13.5606936 19.5662651,13.5606936 C19.5662651,13.5606936 19.5662651,13.5606936 19.6927711,13.433526 L21.2108434,12.416185 C21.2108434,12.416185 21.2108434,12.416185 21.3373494,12.416185 C21.3373494,12.416185 21.4638554,12.416185 21.4638554,12.416185 C21.4638554,12.416185 21.5903614,12.416185 21.5903614,12.416185 C21.7168675,12.416185 21.7168675,12.416185 21.8433735,12.416185 C21.9698795,12.416185 22.0963855,12.416185 22.2228916,12.416185 C22.3493976,12.416185 22.3493976,12.416185 22.4759036,12.416185 C22.4759036,12.416185 22.6024096,12.416185 22.6024096,12.416185 C22.6024096,12.416185 22.6024096,12.416185 22.6024096,12.5433526 L22.6024096,18.5202312 L23.7409639,18.5202312 C23.7409639,18.5202312 23.8674699,18.5202312 23.8674699,18.5202312 C23.8674699,18.5202312 23.8674699,18.5202312 23.9939759,18.6473988 C24.1204819,18.7745665 23.9939759,18.7745665 23.9939759,18.7745665 C23.9939759,18.9017341 23.9939759,18.9017341 23.9939759,19.0289017 C23.9939759,19.1560694 23.9939759,19.283237 23.9939759,19.283237 C23.9939759,19.4104046 23.9939759,19.4104046 23.9939759,19.4104046 C23.9939759,19.4104046 23.9939759,19.5375723 23.8674699,19.5375723 C23.8674699,19.5375723 23.8674699,19.5375723 23.7409639,19.5375723 L19.8192771,19.5375723 C19.8192771,19.5375723 19.8192771,19.5375723 19.6927711,19.5375723 C19.6927711,19.5375723 19.6927711,19.5375723 19.5662651,19.4104046 C19.5662651,19.4104046 19.5662651,19.283237 19.5662651,19.283237 C19.5662651,19.1560694 19.5662651,19.1560694 19.5662651,19.0289017 C19.5662651,18.9017341 19.5662651,18.7745665 19.5662651,18.7745665 C19.5662651,18.6473988 19.5662651,18.6473988 19.5662651,18.6473988 C19.5662651,18.6473988 19.5662651,18.5202312 19.6927711,18.5202312 C19.6927711,18.5202312 19.6927711,18.5202312 19.8192771,18.5202312 L21.2108434,18.5202312 L21.2108434,13.8150289 L20.0722892,14.4508671 C19.9457831,14.4508671 19.9457831,14.5780347 19.8192771,14.5780347 C19.8192771,14.5780347 19.6927711,14.5780347 19.6927711,14.5780347 C19.6927711,14.5780347 19.6927711,14.4508671 19.5662651,14.4508671 C19.5662651,14.3236994 19.5662651,14.3236994 19.5662651,14.0693642 C19.5662651,13.9421965 19.5662651,13.8150289 19.5662651,13.8150289 Z M23.9939759,27.4219653 C23.8674699,27.9306358 23.7409639,28.3121387 23.4879518,28.566474 C23.2349398,28.9479769 22.9819277,29.2023121 22.7289157,29.3294798 C22.3493976,29.4566474 21.9698795,29.583815 21.4638554,29.583815 C20.9578313,29.583815 20.5783133,29.4566474 20.1987952,29.3294798 C19.8192771,29.2023121 19.5662651,28.9479769 19.439759,28.566474 C19.313253,28.1849711 19.060241,27.8034682 19.060241,27.4219653 C18.9337349,26.9132948 18.9337349,26.4046243 18.9337349,25.8959538 C18.9337349,25.2601156 18.9337349,24.7514451 19.060241,24.3699422 C19.186747,23.8612717 19.313253,23.4797688 19.5662651,23.2254335 C19.8192771,22.9710983 20.0722892,22.5895954 20.3253012,22.4624277 C20.7048193,22.3352601 21.0843373,22.2080925 21.5903614,22.2080925 C22.0963855,22.2080925 22.4759036,22.3352601 22.8554217,22.4624277 C23.2349398,22.5895954 23.4879518,22.8439306 23.6144578,23.2254335 C23.7409639,23.6069364 23.9939759,23.9884393 23.9939759,24.3699422 C24.1204819,24.8786127 24.1204819,25.3872832 24.1204819,25.8959538 C24.1204819,26.5317919 24.1204819,27.0404624 23.9939759,27.4219653 Z M29.686747,29.2023121 C29.686747,29.3294798 29.686747,29.3294798 29.686747,29.3294798 C29.686747,29.3294798 29.686747,29.4566474 29.560241,29.4566474 C29.560241,29.4566474 29.560241,29.4566474 29.4337349,29.4566474 L25.5120482,29.4566474 C25.5120482,29.4566474 25.5120482,29.4566474 25.3855422,29.4566474 C25.3855422,29.4566474 25.3855422,29.4566474 25.2590361,29.3294798 C25.2590361,29.3294798 25.2590361,29.2023121 25.2590361,29.2023121 C25.2590361,29.0751445 25.2590361,29.0751445 25.2590361,28.9479769 C25.2590361,28.8208092 25.2590361,28.6936416 25.2590361,28.6936416 C25.2590361,28.566474 25.2590361,28.566474 25.2590361,28.566474 C25.2590361,28.566474 25.2590361,28.4393064 25.3855422,28.4393064 C25.3855422,28.4393064 25.3855422,28.4393064 25.5120482,28.4393064 L26.9036145,28.4393064 L26.9036145,23.734104 L25.7650602,24.3699422 C25.6385542,24.3699422 25.6385542,24.4971098 25.5120482,24.4971098 C25.5120482,24.4971098 25.3855422,24.4971098 25.3855422,24.4971098 C25.3855422,24.4971098 25.3855422,24.3699422 25.2590361,24.3699422 C25.2590361,24.2427746 25.2590361,24.2427746 25.2590361,23.9884393 C25.2590361,23.8612717 25.2590361,23.8612717 25.2590361,23.734104 C25.2590361,23.734104 25.2590361,23.6069364 25.2590361,23.6069364 C25.2590361,23.6069364 25.2590361,23.4797688 25.2590361,23.4797688 C25.2590361,23.4797688 25.2590361,23.4797688 25.3855422,23.3526012 L26.9036145,22.3352601 C26.9036145,22.3352601 26.9036145,22.3352601 27.0301205,22.3352601 C27.0301205,22.3352601 27.1566265,22.3352601 27.1566265,22.3352601 C27.1566265,22.3352601 27.2831325,22.3352601 27.2831325,22.3352601 C27.4096386,22.3352601 27.4096386,22.3352601 27.5361446,22.3352601 C27.6626506,22.3352601 27.7891566,22.3352601 27.9156627,22.3352601 C28.0421687,22.3352601 28.0421687,22.3352601 28.1686747,22.3352601 C28.1686747,22.3352601 28.2951807,22.3352601 28.2951807,22.3352601 C28.2951807,22.3352601 28.2951807,22.3352601 28.2951807,22.4624277 L28.2951807,28.4393064 L29.4337349,28.4393064 C29.4337349,28.4393064 29.560241,28.4393064 29.560241,28.4393064 C29.560241,28.4393064 29.560241,28.4393064 29.686747,28.566474 C29.686747,28.566474 29.686747,28.6936416 29.686747,28.6936416 C29.686747,28.8208092 29.686747,28.8208092 29.686747,28.9479769 C29.686747,29.0751445 29.686747,29.2023121 29.686747,29.2023121 Z M29.813253,17.5028902 C29.686747,18.0115607 29.560241,18.3930636 29.3072289,18.6473988 C29.0542169,19.0289017 28.8012048,19.283237 28.5481928,19.4104046 C28.1686747,19.5375723 27.7891566,19.6647399 27.2831325,19.6647399 C26.7771084,19.6647399 26.3975904,19.5375723 26.0180723,19.4104046 C25.6385542,19.283237 25.3855422,19.0289017 25.2590361,18.6473988 C25.1325301,18.3930636 24.8795181,17.8843931 24.8795181,17.5028902 C24.8795181,17.1213873 24.753012,16.4855491 24.753012,15.9768786 C24.753012,15.3410405 24.753012,14.8323699 24.8795181,14.4508671 C25.0060241,13.9421965 25.1325301,13.5606936 25.3855422,13.3063584 C25.6385542,12.9248555 25.8915663,12.6705202 26.1445783,12.5433526 C26.5240964,12.416185 26.9036145,12.2890173 27.4096386,12.2890173 C27.9156627,12.2890173 28.2951807,12.416185 28.6746988,12.5433526 C29.0542169,12.6705202 29.3072289,12.9248555 29.4337349,13.3063584 C29.560241,13.6878613 29.813253,14.0693642 29.813253,14.4508671 C29.939759,14.9595376 29.939759,15.4682081 29.939759,15.9768786 C29.939759,16.6127168 29.813253,17.1213873 29.813253,17.5028902 Z" id="Shape"></path>
        </g>
    </g>
</svg>