<?xml version="1.0" encoding="UTF-8" standalone="no"?>
<svg width="57px" height="61px" viewBox="0 0 57 61" version="1.1" xmlns="http://www.w3.org/2000/svg" xmlns:xlink="http://www.w3.org/1999/xlink">
    <!-- Generator: Sketch 46.2 (44496) - http://www.bohemiancoding.com/sketch -->
    <title>Slice 1</title>
    <desc>Created with Sketch.</desc>
    <defs></defs>
    <g id="Page-1" stroke="none" stroke-width="1" fill="none" fill-rule="evenodd">
        <g id="AzureCacheRedis" fill-rule="nonzero" fill="#ffffff">
            <g id="shape947-1933_1_">
                <path d="M8.33870968,7.1 C8.33870968,5 15.1612903,3.35 23.6516129,3.35 C32.1419355,3.35 38.9645161,5 38.9645161,7.1 C38.9645161,9.2 32.1419355,10.85 23.6516129,10.85 C15.1612903,10.85 8.33870968,9.2 8.33870968,7.1 Z M21.983871,57.65 L21.983871,21.35 C21.983871,16.85 29.1096774,14.75 39.5709677,14.75 C41.9967742,14.75 44.2709677,14.9 46.3935484,15.2 L46.3935484,7.1 C46.3935484,3.2 36.2354839,0.05 23.6516129,0.05 C11.0677419,0.05 0.909677419,3.2 0.909677419,7.1 L0.909677419,53.9 C0.909677419,57.8 11.0677419,60.95 23.6516129,60.95 L25.1677419,60.95 C23.1967742,59.9 21.983871,58.85 21.983871,57.65 Z" id="Shape"></path>
            </g>
            <g id="shape948-1935_1_" transform="translate(24.000000, 17.000000)">
                <path d="M16.05,8.7 C10.05,8.7 5.1,7.5 5.1,6 C5.1,4.5 10.05,3.3 16.05,3.3 C22.05,3.3 27,4.5 27,6 C27,7.5 22.2,8.7 16.05,8.7 Z M25.65,23.85 L5.7,40.35 L13.35,27.6 L6.6,27.6 L26.55,11.1 L18.9,23.85 L25.65,23.85 Z M16.05,0 C7.2,0 0.45,2.25 0.45,4.95 L0.45,38.55 C0.45,41.4 7.05,43.8 16.05,43.8 C24.9,43.8 32.25,41.55 32.25,38.7 L32.25,5.1 C32.25,2.25 25.05,0 16.05,0 Z" id="Shape"></path>
            </g>
        </g>
    </g>
</svg>