<?xml version="1.0" encoding="UTF-8" standalone="no"?>
<svg width="60px" height="46px" viewBox="0 0 60 46" version="1.1" xmlns="http://www.w3.org/2000/svg" xmlns:xlink="http://www.w3.org/1999/xlink">
    <!-- Generator: Sketch 46.2 (44496) - http://www.bohemiancoding.com/sketch -->
    <title>Slice 1</title>
    <desc>Created with Sketch.</desc>
    <defs></defs>
    <g id="Page-1" stroke="none" stroke-width="1" fill="none" fill-rule="evenodd">
        <g id="Azure-subscription" transform="translate(0.000000, 1.000000)" fill-rule="nonzero" fill="#ffffff">
            <path d="M28.7524057,27.3766249 L28.023819,30.2567181 C27.9023879,30.7367337 28.2666812,31.0967454 28.6309746,30.9767415 L31.5453214,30.2567181 C32.0310459,30.1367143 32.152477,29.7767026 31.7881837,29.4166909 L29.6024235,27.256621 C29.2381302,26.8966093 28.7524057,26.8966093 28.7524057,27.3766249 Z" id="Shape"></path>
            <path d="M31.1700118,23.8126464 L35.136954,27.7470726 C35.4769776,28.0843091 36.0436836,28.0843091 36.3837072,27.7470726 L54.7449823,9.42388759 C55.0850059,9.08665105 55.0850059,8.52459016 54.7449823,8.18735363 L50.7780401,4.2529274 C50.4380165,3.91569087 49.8713105,3.91569087 49.5312869,4.2529274 L31.1700118,22.5761124 C30.9433294,22.9133489 30.9433294,23.4754098 31.1700118,23.8126464 Z" id="Shape"></path>
            <path d="M57.8620252,1.14375491 C55.6603256,-1.05577376 53.458626,0.593872742 53.458626,0.593872742 C53.128371,0.813825609 52.5779461,1.36370778 52.2476912,1.69363708 C51.9174363,2.02356638 51.9174363,2.46347211 52.2476912,2.90337785 L56.1006655,6.75255302 C56.4309204,7.08248233 56.9813453,7.08248233 57.2015153,6.75255302 C57.5317702,6.42262372 57.9721101,5.87274156 58.3023651,5.54281225 C58.41245,5.54281225 60.0637247,3.34328358 57.8620252,1.14375491 Z" id="Shape"></path>
            <path d="M18.1111111,35 L18.1111111,35 C18,35.2 18,35.4 17.8888889,35.6 L17,38 L19,38 L18.2222222,35.6 C18.2222222,35.4 18.1111111,35.2 18.1111111,35 Z" id="Shape"></path>
            <path d="M42.1111111,37 C41.7777778,37 41.5555556,37.1 41.3333333,37.3 C41.1111111,37.5 41,37.7 41,38 L43,38 C43,37.3 42.6666667,37 42.1111111,37 Z" id="Shape"></path>
            <path d="M49.490982,31.0873786 C49.2665331,31.0873786 48.9298597,31.0873786 48.7054108,31.0873786 C49.1543086,29.6148867 49.2665331,28.0291262 49.2665331,26.4433657 C49.2665331,23.9514563 48.7054108,21.5728155 47.8076152,19.420712 L37.3707415,29.9546926 C36.8096192,30.5210356 32.7695391,32.3333333 31.759519,32.6731392 L31.759519,32.6731392 L31.759519,32.6731392 L29.1783567,33.4660194 C28.9539078,33.4660194 28.7294589,33.579288 28.50501,33.579288 C27.7194389,33.579288 26.9338677,33.2394822 26.3727455,32.5598706 C25.8116232,31.8802589 25.5871743,30.97411 25.8116232,30.0679612 L25.8116232,30.0679612 L25.8116232,30.0679612 L26.4849699,27.4627832 C26.7094188,26.3300971 28.6172345,22.2524272 29.1783567,21.6860841 L39.8396794,10.9255663 C37.4829659,9.67961165 34.7895792,9 31.9839679,9 C24.3527054,9 17.8436874,13.9838188 15.5991984,20.8932039 C14.3647295,20.4401294 13.1302605,20.2135922 11.7835671,20.2135922 C5.2745491,20.2135922 0,25.5372168 0,32.1067961 C0,38.6763754 5.2745491,44 11.7835671,44 C11.7835671,44 11.7835671,44 11.7835671,44 L11.7835671,44 L50.0521042,44 L50.0521042,44 C53.4188377,43.7734628 56,40.9417476 56,37.4304207 C56,34.0323625 53.0821643,31.0873786 49.490982,31.0873786 Z M19.5270541,42.3009709 L19.0781563,40.4886731 L16.2725451,40.4886731 L15.7114228,42.3009709 L13.8036072,42.3009709 L16.6092184,34.3721683 L18.741483,34.3721683 L21.5470942,42.3009709 L19.5270541,42.3009709 Z M26.7094188,42.3009709 L21.6593186,42.3009709 L21.6593186,41.6213592 L24.4649299,37.9967638 L21.8837675,37.9967638 L21.8837675,36.7508091 L26.5971944,36.7508091 L26.5971944,37.6569579 L24.1282565,40.9417476 L26.8216433,40.9417476 L26.8216433,42.3009709 L26.7094188,42.3009709 Z M32.993988,42.3009709 L31.3106212,42.3009709 L31.3106212,41.394822 L31.3106212,41.394822 C30.8617234,42.0744337 30.3006012,42.4142395 29.6272545,42.4142395 C28.2805611,42.4142395 27.7194389,41.6213592 27.7194389,40.0355987 L27.7194389,36.6375405 L29.4028056,36.6375405 L29.4028056,39.8090615 C29.4028056,40.6019417 29.739479,41.0550162 30.3006012,41.0550162 C30.6372745,41.0550162 30.8617234,40.9417476 31.0861723,40.7152104 C31.3106212,40.4886731 31.4228457,40.1488673 31.4228457,39.8090615 L31.4228457,36.5242718 L33.1062124,36.5242718 L33.1062124,42.3009709 L32.993988,42.3009709 Z M38.1563126,38.1100324 C37.9318637,37.9967638 37.7074148,37.8834951 37.4829659,37.8834951 C37.1462926,37.8834951 36.8096192,37.9967638 36.5851703,38.3365696 C36.3607214,38.5631068 36.248497,39.0161812 36.248497,39.4692557 L36.248497,42.1877023 L34.5651303,42.1877023 L34.5651303,36.5242718 L36.248497,36.5242718 L36.248497,37.5436893 L36.248497,37.5436893 C36.4729459,36.7508091 37.0340681,36.4110032 37.7074148,36.4110032 C37.9318637,36.4110032 38.0440882,36.4110032 38.1563126,36.5242718 L38.1563126,38.1100324 L38.1563126,38.1100324 Z M43.991984,39.9223301 L40.2885772,39.9223301 C40.4008016,40.7152104 40.8496994,41.1682848 41.8597194,41.1682848 C42.4208417,41.1682848 42.9819639,41.0550162 43.5430862,40.7152104 L43.5430862,41.961165 C42.9819639,42.1877023 42.3086172,42.4142395 41.5230461,42.4142395 C40.6252505,42.4142395 39.9519038,42.1877023 39.3907816,41.6213592 C38.9418838,41.1682848 38.6052104,40.3754045 38.6052104,39.4692557 C38.6052104,38.4498382 38.9418838,37.6569579 39.503006,37.0906149 C40.0641283,36.6375405 40.6252505,36.4110032 41.4108216,36.4110032 C42.3086172,36.4110032 42.8697395,36.6375405 43.3186373,37.2038835 C43.7675351,37.6569579 43.8797595,38.3365696 43.8797595,39.1294498 L43.8797595,39.9223301 L43.991984,39.9223301 Z" id="Shape"></path>
        </g>
    </g>
</svg>